<?xml version="1.0" encoding="UTF-8"?> <svg xmlns="http://www.w3.org/2000/svg" width="775" height="259" viewBox="0 0 775 259" fill="none"><path d="M86.171 122.687C85.8031 126.028 85.6193 129.524 85.6193 133.175C85.6193 143.983 87.0828 153.33 90.0098 161.216C92.9368 169.101 97.2444 175.608 102.933 180.736C108.621 185.81 115.607 189.587 123.891 192.068C132.23 194.495 141.784 195.708 152.553 195.708C157.468 195.708 162.328 195.349 167.132 194.633C170.957 194.112 174.474 193.437 177.683 192.609C179.045 195.769 180.912 198.594 183.286 201.084C188.912 206.929 197.159 211.203 208.026 213.905L218.121 216.469C224.299 218.068 228.409 219.75 230.45 221.515C232.546 223.224 233.594 225.54 233.594 228.463C233.594 231.937 232.132 234.694 229.209 236.735C226.34 238.775 221.155 239.795 213.653 239.795C209.957 239.795 206.24 239.574 202.048 239.133H186.283C181.533 239.133 177.683 242.984 177.683 247.733V249.9C177.683 254.65 173.832 258.5 169.083 258.5H9.1C4.35035 258.5 0.5 254.65 0.5 249.9V131.287C0.5 126.537 4.35035 122.687 9.1 122.687H19.7014C23.5252 122.687 26.8898 120.162 27.9586 116.491L32.3467 101.416C33.4155 97.7449 36.7801 95.2201 40.604 95.2201H71.7042C75.5256 95.2201 78.8887 97.7417 79.9596 101.41L86.171 122.687Z" fill="#C62828"></path><path d="M69.8594 66.8125C70.2611 68.1886 69.2291 69.565 67.7955 69.565H44.486C43.0531 69.565 42.0211 68.1897 42.4217 66.8139L54.0613 26.8402C54.6624 24.7757 57.5868 24.7747 58.1894 26.8388L69.8594 66.8125Z" fill="#C62828"></path><path d="M254.189 200.959C255.751 202.267 258.5 201.227 258.5 199.19V168.798V143.101V9.1C258.5 4.35035 254.65 0.5 249.9 0.5H91.9034C86.1117 0.5 81.9758 6.10888 83.6876 11.6418L105.999 83.7589C109.198 81.2237 112.76 79.0296 116.684 77.177C126.845 72.3795 139.243 69.9808 153.878 69.9807C158.517 69.9807 163.018 70.2013 167.381 70.6425C171.205 71.0243 174.925 71.592 178.542 72.3456C179.526 72.5505 180.221 73.4236 180.221 74.4281V96.0078C180.221 97.3816 178.95 98.4022 177.601 98.1399C174.685 97.5727 171.72 97.1196 168.706 96.7805C164.841 96.3393 160.809 96.1188 156.612 96.1188C147.997 96.1188 140.9 97.3871 135.322 99.9237C129.745 102.405 125.603 106.348 122.897 111.752C120.246 117.156 118.92 124.187 118.92 132.844C118.92 141.667 120.246 148.781 122.897 154.185C125.547 159.534 129.579 163.449 134.991 165.93C140.458 168.357 147.362 169.57 155.701 169.57C159.787 169.57 163.874 169.267 167.961 168.66C170.78 168.21 173.574 167.656 176.342 167.002C178.293 159.997 182.262 154.208 188.25 149.635C197.131 142.853 210.564 139.461 228.547 139.461C234.394 139.461 239.855 139.792 244.93 140.454C250.06 141.116 254.583 141.998 258.5 143.101V168.798C254.694 167.585 250.308 166.509 245.344 165.848C240.379 165.186 235.414 164.855 230.45 164.855C224.272 164.855 219.445 165.351 215.969 166.344C212.494 167.337 210.04 168.715 208.605 170.48C207.171 172.189 206.454 174.119 206.454 176.27C206.454 178.972 207.337 181.15 209.102 182.804C210.922 184.403 214.453 185.92 219.693 187.354L229.871 189.918C237.924 191.903 244.544 194.522 249.729 197.776C251.347 198.763 252.834 199.824 254.189 200.959Z" fill="#C62828"></path><path d="M290.75 72.6065L306.823 24.7642H319.339L335.412 72.6065H326.842L312.515 28.611H313.518L299.223 72.6065H290.75ZM300.905 58.868L302.781 51.9179H323.349L325.225 58.868H300.905Z" fill="white"></path><path d="M350.734 73.2207C348.556 73.2207 346.357 73.0483 344.136 72.7035C341.916 72.3587 339.846 71.863 337.927 71.2165V64.1048C339.264 64.5574 340.665 64.9345 342.131 65.2362C343.619 65.5379 345.096 65.775 346.562 65.9474C348.028 66.0982 349.419 66.1737 350.734 66.1737C354.205 66.1737 356.706 65.5918 358.237 64.4281C359.767 63.2643 360.533 61.6157 360.533 59.4822C360.533 57.6504 359.961 56.2388 358.819 55.2475C357.698 54.2346 355.649 53.3511 352.674 52.5968L349.44 51.7563C345.301 50.7003 342.174 49.084 340.061 46.9074C337.97 44.7093 336.924 41.8215 336.924 38.2441C336.924 33.8478 338.498 30.3997 341.646 27.8998C344.794 25.4 349.516 24.15 355.811 24.15C357.859 24.15 359.832 24.2793 361.729 24.5379C363.648 24.775 365.362 25.1198 366.872 25.5724V32.6841C365.298 32.1884 363.594 31.822 361.762 31.585C359.929 31.3264 358.097 31.1971 356.264 31.1971C353.655 31.1971 351.564 31.4664 349.99 32.0052C348.438 32.544 347.306 33.309 346.594 34.3003C345.904 35.2701 345.559 36.4339 345.559 37.7915C345.559 39.5156 346.066 40.8733 347.079 41.8646C348.114 42.8344 349.968 43.6749 352.642 44.386L355.876 45.2265C358.916 45.9808 361.417 46.9721 363.379 48.2005C365.362 49.4073 366.828 50.8943 367.777 52.6614C368.726 54.407 369.2 56.4867 369.2 58.9003C369.2 61.8959 368.467 64.4604 367.001 66.5939C365.535 68.7274 363.422 70.3652 360.662 71.5074C357.924 72.6496 354.615 73.2207 350.734 73.2207Z" fill="white"></path><path d="M386.99 73.2207C384.813 73.2207 382.614 73.0483 380.393 72.7035C378.172 72.3587 376.102 71.863 374.183 71.2165V64.1048C375.52 64.5574 376.922 64.9345 378.388 65.2362C379.875 65.5379 381.352 65.775 382.818 65.9474C384.284 66.0982 385.675 66.1737 386.99 66.1737C390.461 66.1737 392.962 65.5918 394.493 64.4281C396.024 63.2643 396.789 61.6157 396.789 59.4822C396.789 57.6504 396.218 56.2388 395.075 55.2475C393.954 54.2346 391.906 53.3511 388.931 52.5968L385.697 51.7563C381.557 50.7003 378.431 49.084 376.318 46.9074C374.227 44.7093 373.181 41.8215 373.181 38.2441C373.181 33.8478 374.755 30.3997 377.903 27.8998C381.05 25.4 385.772 24.15 392.068 24.15C394.116 24.15 396.089 24.2793 397.986 24.5379C399.905 24.775 401.619 25.1198 403.128 25.5724V32.6841C401.554 32.1884 399.851 31.822 398.018 31.585C396.186 31.3264 394.353 31.1971 392.52 31.1971C389.912 31.1971 387.82 31.4664 386.246 32.0052C384.694 32.544 383.562 33.309 382.851 34.3003C382.161 35.2701 381.816 36.4339 381.816 37.7915C381.816 39.5156 382.322 40.8733 383.336 41.8646C384.371 42.8344 386.225 43.6749 388.898 44.386L392.132 45.2265C395.172 45.9808 397.673 46.9721 399.635 48.2005C401.619 49.4073 403.085 50.8943 404.034 52.6614C404.982 54.407 405.457 56.4867 405.457 58.9003C405.457 61.8959 404.724 64.4604 403.257 66.5939C401.791 68.7274 399.678 70.3652 396.919 71.5074C394.181 72.6496 390.871 73.2207 386.99 73.2207Z" fill="white"></path><path d="M412.154 72.6065V24.7642H444.333V31.7789H420.692V65.5918H444.656V72.6065H412.154ZM417.361 51.627V44.6123H441.099V51.627H417.361Z" fill="white"></path><path d="M462.788 73.2207C460.61 73.2207 458.411 73.0483 456.19 72.7035C453.97 72.3587 451.9 71.863 449.981 71.2165V64.1048C451.318 64.5574 452.719 64.9345 454.185 65.2362C455.673 65.5379 457.15 65.775 458.616 65.9474C460.082 66.0982 461.473 66.1737 462.788 66.1737C466.259 66.1737 468.76 65.5918 470.291 64.4281C471.822 63.2643 472.587 61.6157 472.587 59.4822C472.587 57.6504 472.016 56.2388 470.873 55.2475C469.752 54.2346 467.704 53.3511 464.728 52.5968L461.494 51.7563C457.355 50.7003 454.228 49.084 452.116 46.9074C450.024 44.7093 448.979 41.8215 448.979 38.2441C448.979 33.8478 450.552 30.3997 453.7 27.8998C456.848 25.4 461.57 24.15 467.865 24.15C469.914 24.15 471.886 24.2793 473.784 24.5379C475.702 24.775 477.416 25.1198 478.926 25.5724V32.6841C477.352 32.1884 475.649 31.822 473.816 31.585C471.983 31.3264 470.151 31.1971 468.318 31.1971C465.709 31.1971 463.618 31.4664 462.044 32.0052C460.492 32.544 459.36 33.309 458.648 34.3003C457.958 35.2701 457.613 36.4339 457.613 37.7915C457.613 39.5156 458.12 40.8733 459.133 41.8646C460.168 42.8344 462.022 43.6749 464.696 44.386L467.93 45.2265C470.97 45.9808 473.471 46.9721 475.433 48.2005C477.416 49.4073 478.883 50.8943 479.831 52.6614C480.78 54.407 481.254 56.4867 481.254 58.9003C481.254 61.8959 480.521 64.4604 479.055 66.5939C477.589 68.7274 475.476 70.3652 472.716 71.5074C469.978 72.6496 466.669 73.2207 462.788 73.2207Z" fill="white"></path><path d="M499.044 73.2207C496.867 73.2207 494.668 73.0483 492.447 72.7035C490.226 72.3587 488.156 71.863 486.238 71.2165V64.1048C487.574 64.5574 488.976 64.9345 490.442 65.2362C491.93 65.5379 493.406 65.775 494.873 65.9474C496.339 66.0982 497.729 66.1737 499.044 66.1737C502.516 66.1737 505.017 65.5918 506.547 64.4281C508.078 63.2643 508.844 61.6157 508.844 59.4822C508.844 57.6504 508.272 56.2388 507.129 55.2475C506.008 54.2346 503.96 53.3511 500.985 52.5968L497.751 51.7563C493.611 50.7003 490.485 49.084 488.372 46.9074C486.281 44.7093 485.235 41.8215 485.235 38.2441C485.235 33.8478 486.809 30.3997 489.957 27.8998C493.105 25.4 497.826 24.15 504.122 24.15C506.17 24.15 508.143 24.2793 510.04 24.5379C511.959 24.775 513.673 25.1198 515.182 25.5724V32.6841C513.608 32.1884 511.905 31.822 510.072 31.585C508.24 31.3264 506.407 31.1971 504.575 31.1971C501.966 31.1971 499.874 31.4664 498.301 32.0052C496.748 32.544 495.616 33.309 494.905 34.3003C494.215 35.2701 493.87 36.4339 493.87 37.7915C493.87 39.5156 494.377 40.8733 495.39 41.8646C496.425 42.8344 498.279 43.6749 500.952 44.386L504.187 45.2265C507.226 45.9808 509.727 46.9721 511.689 48.2005C513.673 49.4073 515.139 50.8943 516.088 52.6614C517.036 54.407 517.511 56.4867 517.511 58.9003C517.511 61.8959 516.778 64.4604 515.312 66.5939C513.845 68.7274 511.733 70.3652 508.973 71.5074C506.235 72.6496 502.925 73.2207 499.044 73.2207Z" fill="white"></path><path d="M524.338 72.6065V24.7642H534.816L549.919 58.3508H548.722L563.534 24.7642H574.012V72.6065H565.927V32.3285H567.803L552.797 65.7857H545.553L530.191 32.3285H532.423V72.6065H524.338Z" fill="white"></path><path d="M583.583 72.6065V24.7642H615.762V31.7789H592.121V65.5918H616.085V72.6065H583.583ZM588.79 51.627V44.6123H612.528V51.627H588.79Z" fill="white"></path><path d="M623.124 72.6065V24.7642H631.856L656.208 62.0683H654.591V24.7642H662.741V72.6065H654.009L629.657 35.3024H631.274V72.6065H623.124Z" fill="white"></path><path d="M683.296 72.6065V32.0375H667.902V24.7642H707.357V32.0375H691.963V72.6065H683.296Z" fill="white"></path><path d="M770.49 73.253L743.098 54.0515C740.252 52.0688 738.042 50.237 736.468 48.5561C734.915 46.8536 733.827 45.1942 733.201 43.5779C732.598 41.94 732.296 40.2375 732.296 38.4704C732.296 33.9879 733.859 30.4859 736.985 27.9645C740.111 25.4215 744.876 24.15 751.28 24.15C752.854 24.15 754.32 24.2255 755.678 24.3763C757.058 24.5056 758.351 24.6996 759.559 24.9582V32.0699C758.395 31.7897 757.144 31.5742 755.807 31.4233C754.492 31.2725 753.177 31.1971 751.862 31.1971C749.188 31.1971 747.054 31.4988 745.458 32.1022C743.863 32.6841 742.709 33.5353 741.998 34.6559C741.287 35.755 740.931 37.0804 740.931 38.632C740.931 39.7095 741.114 40.7116 741.481 41.6383C741.847 42.565 742.472 43.5132 743.356 44.483C744.262 45.4312 745.512 46.5195 747.108 47.7479L774.5 66.9495L770.49 73.253ZM746.17 73.1884C742.073 73.1884 738.656 72.6173 735.918 71.4751C733.18 70.3329 731.121 68.7489 729.741 66.7232C728.361 64.6759 727.671 62.2838 727.671 59.5469C727.671 57.478 728.049 55.6031 728.803 53.9221C729.579 52.2197 730.657 50.765 732.037 49.5582C733.417 48.3298 735.002 47.3815 736.791 46.7135L741.254 50.237C739.637 51.1852 738.397 52.349 737.535 53.7282C736.694 55.1074 736.274 56.7345 736.274 58.6094C736.274 60.3119 736.673 61.7881 737.47 63.038C738.268 64.288 739.465 65.2578 741.06 65.9474C742.677 66.6154 744.682 66.9495 747.075 66.9495C749.641 66.9495 751.883 66.5185 753.802 65.6564C755.721 64.7944 757.209 63.4044 758.265 61.4864C759.343 59.5684 759.882 57.0254 759.882 53.8575C759.882 52.5429 759.774 51.1637 759.559 49.7198C759.343 48.2543 759.041 46.832 758.653 45.4528H765.606C765.995 46.832 766.275 48.2436 766.447 49.6875C766.641 51.1098 766.738 52.4783 766.738 53.7928C766.738 58.0599 765.919 61.6373 764.28 64.525C762.642 67.3913 760.281 69.5571 757.198 71.0225C754.136 72.4664 750.46 73.1884 746.17 73.1884Z" fill="white"></path><path d="M316.881 154.035C313.151 154.035 309.809 153.583 306.855 152.678C303.923 151.751 301.433 150.318 299.385 148.378C297.337 146.417 295.774 143.885 294.696 140.782C293.618 137.678 293.079 133.95 293.079 129.597C293.079 124.015 294.027 119.404 295.924 115.762C297.843 112.119 300.614 109.415 304.236 107.648C307.858 105.859 312.246 104.965 317.398 104.965C319.231 104.965 320.999 105.072 322.702 105.288C324.405 105.482 326.076 105.784 327.715 106.193V113.402C326.141 112.992 324.546 112.691 322.929 112.497C321.333 112.303 319.695 112.206 318.013 112.206C314.499 112.206 311.566 112.777 309.216 113.919C306.866 115.061 305.098 116.904 303.913 119.447C302.748 121.968 302.166 125.308 302.166 129.468C302.166 133.756 302.759 137.172 303.945 139.715C305.131 142.236 306.866 144.047 309.152 145.146C311.459 146.245 314.294 146.794 317.657 146.794C319.339 146.794 320.999 146.665 322.638 146.406C324.276 146.148 325.969 145.749 327.715 145.21V152.419C326.163 152.915 324.459 153.303 322.605 153.583C320.751 153.885 318.843 154.035 316.881 154.035Z" fill="white"></path><path d="M352.707 154.035C348.373 154.035 344.59 153.163 341.356 151.417C338.121 149.671 335.599 146.988 333.788 143.368C331.998 139.747 331.104 135.125 331.104 129.5C331.104 123.875 331.998 119.253 333.788 115.632C335.599 112.012 338.121 109.329 341.356 107.583C344.59 105.837 348.373 104.965 352.707 104.965C357.062 104.965 360.857 105.837 364.091 107.583C367.325 109.329 369.837 112.023 371.626 115.665C373.416 119.285 374.31 123.897 374.31 129.5C374.31 135.103 373.416 139.726 371.626 143.368C369.837 146.988 367.314 149.671 364.058 151.417C360.824 153.163 357.041 154.035 352.707 154.035ZM352.707 146.956C355.337 146.956 357.601 146.385 359.498 145.243C361.396 144.101 362.851 142.269 363.864 139.747C364.899 137.204 365.417 133.853 365.417 129.694C365.417 125.405 364.899 121.968 363.864 119.382C362.829 116.796 361.363 114.932 359.466 113.79C357.569 112.626 355.316 112.044 352.707 112.044C350.12 112.044 347.867 112.615 345.948 113.757C344.051 114.878 342.584 116.71 341.55 119.253C340.515 121.774 339.997 125.125 339.997 129.306C339.997 133.616 340.515 137.064 341.55 139.65C342.584 142.236 344.051 144.101 345.948 145.243C347.845 146.385 350.098 146.956 352.707 146.956Z" fill="white"></path><path d="M401.138 154.035C396.675 154.035 393.02 153.324 390.174 151.902C387.328 150.458 385.215 148.271 383.836 145.34C382.477 142.409 381.798 138.702 381.798 134.22V105.579H390.465V135.06C390.465 139.198 391.339 142.204 393.085 144.079C394.831 145.932 397.516 146.859 401.138 146.859C404.76 146.859 407.433 145.932 409.158 144.079C410.904 142.204 411.778 139.198 411.778 135.06V105.579H420.283V134.22C420.283 138.702 419.604 142.409 418.246 145.34C416.887 148.271 414.796 150.458 411.972 151.902C409.147 153.324 405.536 154.035 401.138 154.035Z" fill="white"></path><path d="M429.461 153.421V105.579H438.193L462.545 142.883H460.928V105.579H469.078V153.421H460.346L435.994 116.117H437.611V153.421H429.461Z" fill="white"></path><path d="M489.633 154.035C487.455 154.035 485.256 153.863 483.035 153.518C480.815 153.173 478.745 152.678 476.826 152.031V144.919C478.163 145.372 479.564 145.749 481.03 146.051C482.518 146.353 483.995 146.59 485.461 146.762C486.927 146.913 488.318 146.988 489.633 146.988C493.104 146.988 495.605 146.406 497.136 145.243C498.667 144.079 499.432 142.43 499.432 140.297C499.432 138.465 498.861 137.053 497.718 136.062C496.597 135.049 494.549 134.166 491.573 133.411L488.339 132.571C484.2 131.515 481.073 129.899 478.961 127.722C476.869 125.524 475.824 122.636 475.824 119.059C475.824 114.662 477.397 111.214 480.545 108.714C483.693 106.215 488.415 104.965 494.71 104.965C496.759 104.965 498.731 105.094 500.629 105.353C502.547 105.59 504.261 105.934 505.771 106.387V113.499C504.197 113.003 502.494 112.637 500.661 112.4C498.828 112.141 496.996 112.012 495.163 112.012C492.554 112.012 490.463 112.281 488.889 112.82C487.337 113.359 486.205 114.124 485.493 115.115C484.803 116.085 484.458 117.249 484.458 118.606C484.458 120.33 484.965 121.688 485.978 122.679C487.013 123.649 488.867 124.49 491.541 125.201L494.775 126.041C497.815 126.795 500.316 127.787 502.278 129.015C504.261 130.222 505.728 131.709 506.676 133.476C507.625 135.222 508.099 137.301 508.099 139.715C508.099 142.711 507.366 145.275 505.9 147.409C504.434 149.542 502.321 151.18 499.561 152.322C496.823 153.464 493.514 154.035 489.633 154.035Z" fill="white"></path><path d="M514.797 153.421V105.579H546.975V112.594H523.335V146.406H547.299V153.421H514.797ZM520.003 132.442V125.427H543.741V132.442H520.003Z" fill="white"></path><path d="M554.338 153.421V105.579H562.973V146.148H585.546V153.421H554.338Z" fill="white"></path><path d="M590.594 153.421V105.579H599.229V153.421H590.594Z" fill="white"></path><path d="M608.659 153.421V105.579H617.391L641.744 142.883H640.127V105.579H648.276V153.421H639.544L615.192 116.117H616.809V153.421H608.659Z" fill="white"></path><path d="M682.349 153.906C676.506 153.906 671.634 153.044 667.732 151.32C663.829 149.574 660.886 146.913 658.903 143.335C656.941 139.737 655.96 135.157 655.96 129.597C655.96 123.994 656.973 119.382 659 115.762C661.026 112.119 663.969 109.415 667.829 107.648C671.688 105.859 676.345 104.965 681.8 104.965C683.654 104.965 685.476 105.072 687.265 105.288C689.055 105.503 690.822 105.827 692.569 106.258V113.466C690.801 113.014 689.098 112.691 687.459 112.497C685.821 112.303 684.171 112.206 682.511 112.206C678.652 112.206 675.428 112.777 672.841 113.919C670.254 115.061 668.303 116.914 666.988 119.479C665.672 122.044 665.015 125.449 665.015 129.694C665.015 133.702 665.629 136.967 666.858 139.489C668.087 141.989 669.941 143.82 672.421 144.984C674.9 146.148 677.994 146.73 681.703 146.73C683.082 146.73 684.43 146.676 685.745 146.568C687.06 146.46 688.278 146.309 689.4 146.116L685.745 149.413V130.147H693.862V152.904C691.814 153.249 689.852 153.497 687.977 153.647C686.101 153.82 684.225 153.906 682.349 153.906Z" fill="white"></path><path d="M305.95 234.85C303.772 234.85 301.573 234.678 299.353 234.333C297.132 233.988 295.062 233.492 293.143 232.846V225.734C294.48 226.187 295.881 226.564 297.347 226.866C298.835 227.167 300.312 227.404 301.778 227.577C303.244 227.728 304.635 227.803 305.95 227.803C309.421 227.803 311.922 227.221 313.453 226.057C314.984 224.894 315.749 223.245 315.749 221.112C315.749 219.28 315.178 217.868 314.035 216.877C312.914 215.864 310.866 214.98 307.89 214.226L304.656 213.386C300.517 212.33 297.391 210.713 295.278 208.537C293.186 206.339 292.141 203.451 292.141 199.873C292.141 195.477 293.715 192.029 296.862 189.529C300.01 187.029 304.732 185.779 311.027 185.779C313.076 185.779 315.048 185.909 316.946 186.167C318.865 186.404 320.579 186.749 322.088 187.202V194.313C320.514 193.818 318.811 193.451 316.978 193.214C315.145 192.956 313.313 192.826 311.48 192.826C308.871 192.826 306.78 193.096 305.206 193.635C303.654 194.173 302.522 194.938 301.81 195.93C301.12 196.899 300.775 198.063 300.775 199.421C300.775 201.145 301.282 202.503 302.295 203.494C303.33 204.464 305.185 205.304 307.858 206.015L311.092 206.856C314.132 207.61 316.633 208.601 318.595 209.83C320.579 211.037 322.045 212.524 322.993 214.291C323.942 216.036 324.416 218.116 324.416 220.53C324.416 223.525 323.683 226.09 322.217 228.223C320.751 230.357 318.638 231.995 315.878 233.137C313.14 234.279 309.831 234.85 305.95 234.85Z" fill="white"></path><path d="M350.938 234.85C346.605 234.85 342.821 233.977 339.587 232.232C336.353 230.486 333.83 227.803 332.019 224.182C330.23 220.562 329.335 215.939 329.335 210.315C329.335 204.69 330.23 200.067 332.019 196.447C333.83 192.826 336.353 190.143 339.587 188.398C342.821 186.652 346.605 185.779 350.938 185.779C355.294 185.779 359.088 186.652 362.322 188.398C365.556 190.143 368.068 192.837 369.857 196.479C371.647 200.1 372.542 204.712 372.542 210.315C372.542 215.918 371.647 220.54 369.857 224.182C368.068 227.803 365.545 230.486 362.29 232.232C359.056 233.977 355.272 234.85 350.938 234.85ZM350.938 227.771C353.569 227.771 355.833 227.2 357.73 226.057C359.627 224.915 361.082 223.083 362.096 220.562C363.131 218.019 363.648 214.668 363.648 210.509C363.648 206.22 363.131 202.783 362.096 200.197C361.061 197.611 359.595 195.747 357.697 194.604C355.8 193.441 353.547 192.859 350.938 192.859C348.351 192.859 346.098 193.43 344.179 194.572C342.282 195.693 340.816 197.524 339.781 200.067C338.746 202.589 338.229 205.94 338.229 210.121C338.229 214.431 338.746 217.879 339.781 220.465C340.816 223.051 342.282 224.915 344.179 226.057C346.077 227.2 348.33 227.771 350.938 227.771Z" fill="white"></path><path d="M380.256 234.236V186.394H388.891V226.963H411.464V234.236H380.256Z" fill="white"></path><path d="M434.615 234.85C430.152 234.85 426.497 234.139 423.652 232.717C420.806 231.273 418.693 229.085 417.313 226.154C415.955 223.223 415.275 219.517 415.275 215.034V186.394H423.943V215.875C423.943 220.012 424.816 223.019 426.562 224.894C428.309 226.747 430.993 227.674 434.615 227.674C438.237 227.674 440.91 226.747 442.635 224.894C444.382 223.019 445.255 220.012 445.255 215.875V186.394H453.76V215.034C453.76 219.517 453.081 223.223 451.723 226.154C450.365 229.085 448.273 231.273 445.449 232.717C442.625 234.139 439.013 234.85 434.615 234.85Z" fill="white"></path><path d="M474.031 234.236V193.667H458.637V186.394H498.092V193.667H482.698V234.236H474.031Z" fill="white"></path><path d="M503.238 234.236V186.394H511.872V234.236H503.238Z" fill="white"></path><path d="M541.127 234.85C536.794 234.85 533.01 233.977 529.776 232.232C526.542 230.486 524.019 227.803 522.208 224.182C520.419 220.562 519.524 215.939 519.524 210.315C519.524 204.69 520.419 200.067 522.208 196.447C524.019 192.826 526.542 190.143 529.776 188.398C533.01 186.652 536.794 185.779 541.127 185.779C545.482 185.779 549.277 186.652 552.511 188.398C555.745 190.143 558.257 192.837 560.046 196.479C561.836 200.1 562.731 204.712 562.731 210.315C562.731 215.918 561.836 220.54 560.046 224.182C558.257 227.803 555.734 230.486 552.479 232.232C549.245 233.977 545.461 234.85 541.127 234.85ZM541.127 227.771C543.758 227.771 546.021 227.2 547.919 226.057C549.816 224.915 551.271 223.083 552.285 220.562C553.32 218.019 553.837 214.668 553.837 210.509C553.837 206.22 553.32 202.783 552.285 200.197C551.25 197.611 549.784 195.747 547.886 194.604C545.989 193.441 543.736 192.859 541.127 192.859C538.54 192.859 536.287 193.43 534.368 194.572C532.471 195.693 531.005 197.524 529.97 200.067C528.935 202.589 528.418 205.94 528.418 210.121C528.418 214.431 528.935 217.879 529.97 220.465C531.005 223.051 532.471 224.915 534.368 226.057C536.265 227.2 538.518 227.771 541.127 227.771Z" fill="white"></path><path d="M570.445 234.236V186.394H579.177L603.529 223.698H601.912V186.394H610.062V234.236H601.33L576.977 196.932H578.595V234.236H570.445Z" fill="white"></path><path d="M630.616 234.85C628.439 234.85 626.24 234.678 624.019 234.333C621.798 233.988 619.729 233.492 617.81 232.846V225.734C619.146 226.187 620.548 226.564 622.014 226.866C623.502 227.167 624.978 227.404 626.445 227.577C627.911 227.728 629.301 227.803 630.616 227.803C634.088 227.803 636.589 227.221 638.119 226.057C639.65 224.894 640.416 223.245 640.416 221.112C640.416 219.28 639.844 217.868 638.702 216.877C637.58 215.864 635.532 214.98 632.557 214.226L629.323 213.386C625.183 212.33 622.057 210.713 619.944 208.537C617.853 206.339 616.807 203.451 616.807 199.873C616.807 195.477 618.381 192.029 621.529 189.529C624.677 187.029 629.398 185.779 635.694 185.779C637.742 185.779 639.715 185.909 641.612 186.167C643.531 186.404 645.245 186.749 646.754 187.202V194.313C645.18 193.818 643.477 193.451 641.644 193.214C639.812 192.956 637.979 192.826 636.147 192.826C633.538 192.826 631.447 193.096 629.873 193.635C628.32 194.173 627.188 194.938 626.477 195.93C625.787 196.899 625.442 198.063 625.442 199.421C625.442 201.145 625.949 202.503 626.962 203.494C627.997 204.464 629.851 205.304 632.525 206.015L635.759 206.856C638.799 207.61 641.3 208.601 643.262 209.83C645.245 211.037 646.711 212.524 647.66 214.291C648.608 216.036 649.083 218.116 649.083 220.53C649.083 223.525 648.35 226.09 646.884 228.223C645.418 230.357 643.305 231.995 640.545 233.137C637.807 234.279 634.497 234.85 630.616 234.85Z" fill="white"></path></svg> 