<svg width="800" height="267" viewBox="0 0 800 267" fill="none" xmlns="http://www.w3.org/2000/svg">
<path d="M88.5488 126.449C88.1686 129.907 87.9786 133.525 87.9786 137.303C87.9786 148.489 89.4913 158.161 92.5166 166.322C95.5419 174.483 99.9942 181.216 105.873 186.524C111.753 191.774 118.974 195.683 127.536 198.251C136.155 200.762 146.03 202.017 157.16 202.017C162.241 202.017 167.264 201.646 172.23 200.905C176.183 200.366 179.818 199.668 183.135 198.811C184.543 202.081 186.473 205.005 188.926 207.581C194.741 213.631 203.265 218.053 214.497 220.85L224.931 223.503C231.317 225.158 235.565 226.899 237.674 228.725C239.841 230.494 240.924 232.891 240.924 235.915C240.924 239.51 239.413 242.364 236.391 244.475C233.426 246.587 228.067 247.642 220.313 247.642C216.493 247.642 212.651 247.414 208.318 246.958H192.023C187.114 246.958 183.135 250.942 183.135 255.858V258.1C183.135 263.015 179.155 267 174.246 267H8.88889C3.97969 267 0 263.015 0 258.1V135.349C0 130.434 3.97969 126.449 8.88889 126.449H19.8464C23.7987 126.449 27.2763 123.836 28.381 120.037L32.9165 104.437C34.0212 100.637 37.4988 98.0243 41.4511 98.0243H73.5961C77.5459 98.0243 81.0219 100.634 82.1288 104.43L88.5488 126.449Z" fill="#C62828"/>
<path d="M71.6893 68.6257C72.1045 70.0498 71.0378 71.4743 69.5561 71.4743H45.4636C43.9825 71.4743 42.9159 70.051 43.33 68.6272L55.3605 27.2591C55.9818 25.1226 59.0045 25.1215 59.6273 27.2576L71.6893 68.6257Z" fill="#C62828"/>
<path d="M262.211 207.452C263.825 208.805 266.667 207.729 266.667 205.621V174.169V147.575V8.9C266.667 3.98467 262.687 0 257.778 0H94.4737C88.4875 0 84.2127 5.80454 85.982 11.5305L109.043 86.1632C112.35 83.5397 116.031 81.269 120.086 79.3517C130.589 74.3869 143.404 71.9045 158.53 71.9045C163.325 71.9045 167.977 72.1328 172.487 72.5893C176.439 72.9845 180.284 73.572 184.023 74.3519C185.039 74.5639 185.758 75.4674 185.758 76.507V98.8395C185.758 100.261 184.444 101.317 183.051 101.046C180.037 100.459 176.972 99.99 173.857 99.6391C169.861 99.1826 165.694 98.9543 161.356 98.9543C152.451 98.9543 145.116 100.267 139.351 102.892C133.586 105.46 129.305 109.54 126.508 115.133C123.768 120.725 122.398 128.001 122.398 136.961C122.398 146.092 123.768 153.453 126.508 159.046C129.248 164.581 133.415 168.633 139.009 171.201C144.66 173.712 151.795 174.968 160.414 174.968C164.638 174.968 168.862 174.654 173.086 174.026C176 173.56 178.888 172.987 181.749 172.31C183.765 165.061 187.868 159.07 194.057 154.338C203.237 147.319 217.12 143.809 235.707 143.809C241.751 143.809 247.395 144.151 252.641 144.836C257.943 145.521 262.619 146.434 266.667 147.575V174.169C262.733 172.913 258.2 171.8 253.068 171.116C247.937 170.431 242.806 170.088 237.674 170.088C231.288 170.088 226.299 170.602 222.707 171.629C219.115 172.656 216.578 174.083 215.096 175.909C213.614 177.678 212.872 179.676 212.872 181.901C212.872 184.698 213.785 186.952 215.609 188.664C217.491 190.319 221.14 191.888 226.556 193.372L237.075 196.025C245.4 198.08 252.242 200.79 257.601 204.157C259.274 205.179 260.81 206.278 262.211 207.452Z" fill="#C62828"/>
<path d="M300 74.6219L316.613 25.1107H329.549L346.162 74.6219H337.304L322.496 29.0916H323.532L308.758 74.6219H300ZM310.496 60.4041L312.435 53.2116H333.694L335.633 60.4041H310.496Z" fill="#2B2B2B"/>
<path d="M361.999 75.2575C359.748 75.2575 357.475 75.079 355.18 74.7222C352.884 74.3654 350.745 73.8524 348.762 73.1833V65.8236C350.143 66.2919 351.592 66.6822 353.107 66.9945C354.645 67.3067 356.171 67.552 357.687 67.7304C359.202 67.8865 360.639 67.9646 361.999 67.9646C365.586 67.9646 368.171 67.3624 369.754 66.1581C371.336 64.9538 372.127 63.2477 372.127 61.0397C372.127 59.144 371.536 57.6832 370.355 56.6573C369.197 55.6091 367.079 54.6947 364.004 53.9141L360.662 53.0443C356.383 51.9515 353.152 50.2788 350.968 48.0263C348.806 45.7515 347.725 42.763 347.725 39.0608C347.725 34.5111 349.352 30.9427 352.606 28.3556C355.859 25.7686 360.74 24.475 367.247 24.475C369.364 24.475 371.403 24.6088 373.364 24.8765C375.347 25.1218 377.119 25.4786 378.679 25.947V33.3068C377.052 32.7938 375.291 32.4147 373.397 32.1693C371.503 31.9017 369.609 31.7679 367.715 31.7679C365.018 31.7679 362.857 32.0467 361.23 32.6042C359.625 33.1618 358.455 33.9535 357.72 34.9794C357.007 35.983 356.65 37.1874 356.65 38.5924C356.65 40.3766 357.174 41.7817 358.221 42.8076C359.291 43.8112 361.208 44.681 363.971 45.4169L367.313 46.2867C370.456 47.0673 373.041 48.0932 375.068 49.3644C377.119 50.6134 378.634 52.1522 379.614 53.981C380.595 55.7875 381.085 57.9397 381.085 60.4376C381.085 63.5376 380.328 66.1916 378.812 68.3995C377.297 70.6074 375.113 72.3024 372.261 73.4844C369.431 74.6665 366.01 75.2575 361.999 75.2575Z" fill="#2B2B2B"/>
<path d="M399.473 75.2575C397.222 75.2575 394.949 75.079 392.654 74.7222C390.359 74.3654 388.219 73.8524 386.236 73.1833V65.8236C387.618 66.2919 389.066 66.6822 390.582 66.9945C392.119 67.3067 393.646 67.552 395.161 67.7304C396.676 67.8865 398.114 67.9646 399.473 67.9646C403.061 67.9646 405.646 67.3624 407.228 66.1581C408.81 64.9538 409.601 63.2477 409.601 61.0397C409.601 59.144 409.011 57.6832 407.83 56.6573C406.671 55.6091 404.554 54.6947 401.479 53.9141L398.136 53.0443C393.857 51.9515 390.626 50.2788 388.442 48.0263C386.281 45.7515 385.2 42.763 385.2 39.0608C385.2 34.5111 386.827 30.9427 390.08 28.3556C393.334 25.7686 398.214 24.475 404.721 24.475C406.838 24.475 408.877 24.6088 410.838 24.8765C412.822 25.1218 414.593 25.4786 416.153 25.947V33.3068C414.526 32.7938 412.766 32.4147 410.872 32.1693C408.977 31.9017 407.083 31.7679 405.189 31.7679C402.493 31.7679 400.331 32.0467 398.704 32.6042C397.1 33.1618 395.93 33.9535 395.194 34.9794C394.481 35.983 394.125 37.1874 394.125 38.5924C394.125 40.3766 394.648 41.7817 395.696 42.8076C396.766 43.8112 398.682 44.681 401.445 45.4169L404.788 46.2867C407.93 47.0673 410.515 48.0932 412.543 49.3644C414.593 50.6134 416.108 52.1522 417.089 53.981C418.069 55.7875 418.56 57.9397 418.56 60.4376C418.56 63.5376 417.802 66.1916 416.287 68.3995C414.771 70.6074 412.588 72.3024 409.735 73.4844C406.905 74.6665 403.484 75.2575 399.473 75.2575Z" fill="#2B2B2B"/>
<path d="M425.482 74.6219V25.1107H458.742V32.3701H434.307V67.3624H459.076V74.6219H425.482ZM430.864 52.9105V45.6511H455.399V52.9105H430.864Z" fill="#2B2B2B"/>
<path d="M477.817 75.2575C475.566 75.2575 473.293 75.079 470.998 74.7222C468.703 74.3654 466.563 73.8524 464.58 73.1833V65.8236C465.962 66.2919 467.41 66.6822 468.925 66.9945C470.463 67.3067 471.99 67.552 473.505 67.7304C475.02 67.8865 476.458 67.9646 477.817 67.9646C481.405 67.9646 483.99 67.3624 485.572 66.1581C487.154 64.9538 487.945 63.2477 487.945 61.0397C487.945 59.144 487.355 57.6832 486.174 56.6573C485.015 55.6091 482.898 54.6947 479.822 53.9141L476.48 53.0443C472.201 51.9515 468.97 50.2788 466.786 48.0263C464.624 45.7515 463.544 42.763 463.544 39.0608C463.544 34.5111 465.17 30.9427 468.424 28.3556C471.678 25.7686 476.558 24.475 483.065 24.475C485.182 24.475 487.221 24.6088 489.182 24.8765C491.165 25.1218 492.937 25.4786 494.497 25.947V33.3068C492.87 32.7938 491.11 32.4147 489.215 32.1693C487.321 31.9017 485.427 31.7679 483.533 31.7679C480.836 31.7679 478.675 32.0467 477.048 32.6042C475.444 33.1618 474.274 33.9535 473.538 34.9794C472.825 35.983 472.469 37.1874 472.469 38.5924C472.469 40.3766 472.992 41.7817 474.04 42.8076C475.109 43.8112 477.026 44.681 479.789 45.4169L483.132 46.2867C486.274 47.0673 488.859 48.0932 490.887 49.3644C492.937 50.6134 494.452 52.1522 495.433 53.981C496.413 55.7875 496.904 57.9397 496.904 60.4376C496.904 63.5376 496.146 66.1916 494.63 68.3995C493.115 70.6074 490.931 72.3024 488.079 73.4844C485.249 74.6665 481.828 75.2575 477.817 75.2575Z" fill="#2B2B2B"/>
<path d="M515.291 75.2575C513.041 75.2575 510.768 75.079 508.472 74.7222C506.177 74.3654 504.038 73.8524 502.054 73.1833V65.8236C503.436 66.2919 504.884 66.6822 506.4 66.9945C507.937 67.3067 509.464 67.552 510.979 67.7304C512.495 67.8865 513.932 67.9646 515.291 67.9646C518.879 67.9646 521.464 67.3624 523.046 66.1581C524.629 64.9538 525.42 63.2477 525.42 61.0397C525.42 59.144 524.829 57.6832 523.648 56.6573C522.489 55.6091 520.372 54.6947 517.297 53.9141L513.954 53.0443C509.676 51.9515 506.444 50.2788 504.261 48.0263C502.099 45.7515 501.018 42.763 501.018 39.0608C501.018 34.5111 502.645 30.9427 505.898 28.3556C509.152 25.7686 514.032 24.475 520.539 24.475C522.656 24.475 524.695 24.6088 526.656 24.8765C528.64 25.1218 530.411 25.4786 531.971 25.947V33.3068C530.345 32.7938 528.584 32.4147 526.69 32.1693C524.796 31.9017 522.901 31.7679 521.007 31.7679C518.311 31.7679 516.149 32.0467 514.523 32.6042C512.918 33.1618 511.748 33.9535 511.013 34.9794C510.3 35.983 509.943 37.1874 509.943 38.5924C509.943 40.3766 510.467 41.7817 511.514 42.8076C512.584 43.8112 514.5 44.681 517.263 45.4169L520.606 46.2867C523.748 47.0673 526.333 48.0932 528.361 49.3644C530.411 50.6134 531.927 52.1522 532.907 53.981C533.888 55.7875 534.378 57.9397 534.378 60.4376C534.378 63.5376 533.62 66.1916 532.105 68.3995C530.59 70.6074 528.406 72.3024 525.553 73.4844C522.723 74.6665 519.303 75.2575 515.291 75.2575Z" fill="#2B2B2B"/>
<path d="M541.434 74.6219V25.1107H552.264L567.875 59.8688H566.638L581.947 25.1107H592.777V74.6219H584.421V32.9388H586.36L570.85 67.5632H563.362L547.484 32.9388H549.791V74.6219H541.434Z" fill="#2B2B2B"/>
<path d="M602.67 74.6219V25.1107H635.929V32.3701H611.494V67.3624H636.264V74.6219H602.67ZM608.051 52.9105V45.6511H632.587V52.9105H608.051Z" fill="#2B2B2B"/>
<path d="M643.539 74.6219V25.1107H652.564L677.735 63.716H676.063V25.1107H684.487V74.6219H675.462L650.291 36.0165H651.963V74.6219H643.539Z" fill="#2B2B2B"/>
<path d="M705.732 74.6219V32.6377H689.821V25.1107H730.601V32.6377H714.69V74.6219H705.732Z" fill="#2B2B2B"/>
<path d="M795.855 75.2909L767.543 55.4195C764.601 53.3677 762.317 51.472 760.69 49.7324C759.086 47.9706 757.96 46.2533 757.314 44.5806C756.69 42.8856 756.378 41.1237 756.378 39.2949C756.378 34.6561 757.994 31.0319 761.225 28.4225C764.456 25.7909 769.381 24.475 776 24.475C777.626 24.475 779.142 24.5531 780.546 24.7092C781.972 24.843 783.309 25.0437 784.557 25.3114V32.6711C783.354 32.3812 782.061 32.1582 780.679 32.0021C779.32 31.846 777.961 31.7679 776.601 31.7679C773.838 31.7679 771.632 32.0801 769.983 32.7046C768.334 33.3068 767.142 34.1877 766.406 35.3474C765.671 36.4848 765.303 37.8564 765.303 39.4622C765.303 40.5773 765.492 41.6144 765.871 42.5734C766.25 43.5324 766.896 44.5137 767.81 45.5173C768.746 46.4986 770.039 47.6249 771.688 48.8961L800 68.7675L795.855 75.2909ZM770.718 75.224C766.484 75.224 762.952 74.633 760.122 73.451C757.292 72.269 755.164 70.6297 753.737 68.5333C752.311 66.4146 751.598 63.939 751.598 61.1066C751.598 58.9656 751.988 57.0253 752.768 55.2857C753.57 53.5238 754.685 52.0184 756.111 50.7695C757.537 49.4983 759.175 48.517 761.024 47.8256L765.637 51.472C763.966 52.4533 762.685 53.6576 761.793 55.085C760.924 56.5123 760.49 58.1962 760.49 60.1365C760.49 61.8984 760.902 63.4261 761.726 64.7196C762.551 66.0131 763.788 67.0168 765.437 67.7304C767.108 68.4218 769.181 68.7675 771.654 68.7675C774.306 68.7675 776.624 68.3214 778.607 67.4294C780.59 66.5373 782.128 65.0987 783.22 63.1138C784.334 61.1289 784.891 58.4973 784.891 55.2188C784.891 53.8584 784.78 52.431 784.557 50.9368C784.334 49.4202 784.022 47.9482 783.621 46.5209H790.808C791.209 47.9482 791.498 49.409 791.677 50.9033C791.877 52.3753 791.978 53.7915 791.978 55.1519C791.978 59.5678 791.131 63.27 789.437 66.2585C787.744 69.2247 785.303 71.4661 782.117 72.9826C778.952 74.4769 775.153 75.224 770.718 75.224Z" fill="#2B2B2B"/>
<path d="M327.009 158.891C323.154 158.891 319.699 158.423 316.646 157.486C313.616 156.527 311.042 155.044 308.925 153.037C306.808 151.007 305.192 148.387 304.078 145.175C302.964 141.964 302.407 138.105 302.407 133.6C302.407 127.824 303.387 123.051 305.348 119.282C307.332 115.513 310.195 112.714 313.939 110.885C317.683 109.034 322.218 108.109 327.544 108.109C329.438 108.109 331.265 108.22 333.026 108.443C334.786 108.644 336.513 108.956 338.207 109.38V116.84C336.58 116.416 334.931 116.104 333.259 115.903C331.61 115.703 329.917 115.602 328.179 115.602C324.546 115.602 321.516 116.193 319.087 117.375C316.658 118.557 314.83 120.464 313.605 123.096C312.401 125.705 311.8 129.162 311.8 133.467C311.8 137.905 312.412 141.44 313.638 144.071C314.864 146.681 316.658 148.554 319.02 149.692C321.404 150.829 324.335 151.398 327.811 151.398C329.549 151.398 331.265 151.264 332.959 150.996C334.652 150.729 336.402 150.316 338.207 149.758V157.219C336.602 157.732 334.842 158.133 332.925 158.423C331.009 158.735 329.037 158.891 327.009 158.891Z" fill="#2B2B2B"/>
<path d="M364.038 158.891C359.559 158.891 355.648 157.988 352.305 156.182C348.963 154.375 346.355 151.598 344.484 147.852C342.634 144.105 341.709 139.321 341.709 133.5C341.709 127.679 342.634 122.895 344.484 119.148C346.355 115.402 348.963 112.625 352.305 110.819C355.648 109.012 359.559 108.109 364.038 108.109C368.54 108.109 372.462 109.012 375.804 110.819C379.147 112.625 381.743 115.413 383.593 119.182C385.442 122.929 386.367 127.701 386.367 133.5C386.367 139.299 385.442 144.083 383.593 147.852C381.743 151.598 379.136 154.375 375.771 156.182C372.428 157.988 368.517 158.891 364.038 158.891ZM364.038 151.565C366.757 151.565 369.097 150.974 371.058 149.792C373.019 148.61 374.523 146.714 375.57 144.105C376.64 141.473 377.175 138.005 377.175 133.701C377.175 129.263 376.64 125.705 375.57 123.029C374.501 120.353 372.985 118.424 371.024 117.242C369.063 116.037 366.735 115.435 364.038 115.435C361.364 115.435 359.035 116.026 357.052 117.208C355.091 118.368 353.576 120.264 352.506 122.895C351.436 125.505 350.902 128.973 350.902 133.299C350.902 137.76 351.436 141.328 352.506 144.004C353.576 146.681 355.091 148.61 357.052 149.792C359.013 150.974 361.342 151.565 364.038 151.565Z" fill="#2B2B2B"/>
<path d="M414.096 158.891C409.483 158.891 405.706 158.155 402.764 156.683C399.823 155.189 397.639 152.925 396.212 149.892C394.809 146.859 394.107 143.023 394.107 138.384V108.744H403.065V139.254C403.065 143.536 403.967 146.647 405.772 148.588C407.578 150.506 410.352 151.465 414.096 151.465C417.839 151.465 420.603 150.506 422.386 148.588C424.191 146.647 425.093 143.536 425.093 139.254V108.744H433.884V138.384C433.884 143.023 433.182 146.859 431.778 149.892C430.374 152.925 428.213 155.189 425.294 156.683C422.374 158.155 418.642 158.891 414.096 158.891Z" fill="#2B2B2B"/>
<path d="M443.371 158.256V108.744H452.396L477.566 147.35H475.895V108.744H484.318V158.256H475.293L450.123 119.65H451.794V158.256H443.371Z" fill="#2B2B2B"/>
<path d="M505.564 158.891C503.313 158.891 501.04 158.713 498.745 158.356C496.449 157.999 494.31 157.486 492.327 156.817V149.457C493.708 149.926 495.157 150.316 496.672 150.628C498.21 150.94 499.736 151.186 501.252 151.364C502.767 151.52 504.204 151.598 505.564 151.598C509.151 151.598 511.736 150.996 513.319 149.792C514.901 148.588 515.692 146.881 515.692 144.674C515.692 142.778 515.101 141.317 513.92 140.291C512.762 139.243 510.645 138.328 507.569 137.548L504.227 136.678C499.948 135.585 496.717 133.913 494.533 131.66C492.371 129.385 491.29 126.397 491.29 122.695C491.29 118.145 492.917 114.576 496.171 111.989C499.424 109.402 504.305 108.109 510.812 108.109C512.929 108.109 514.968 108.243 516.929 108.51C518.912 108.756 520.684 109.112 522.244 109.581V116.941C520.617 116.428 518.856 116.048 516.962 115.803C515.068 115.536 513.174 115.402 511.28 115.402C508.583 115.402 506.422 115.68 504.795 116.238C503.19 116.796 502.02 117.587 501.285 118.613C500.572 119.617 500.215 120.821 500.215 122.226C500.215 124.01 500.739 125.415 501.786 126.441C502.856 127.445 504.773 128.315 507.536 129.051L510.878 129.921C514.021 130.701 516.606 131.727 518.633 132.998C520.684 134.247 522.199 135.786 523.179 137.615C524.16 139.421 524.65 141.573 524.65 144.071C524.65 147.171 523.893 149.825 522.377 152.033C520.862 154.241 518.678 155.936 515.826 157.118C512.996 158.3 509.575 158.891 505.564 158.891Z" fill="#2B2B2B"/>
<path d="M531.573 158.256V108.744H564.832V116.004H540.397V150.996H565.167V158.256H531.573ZM536.954 136.544V129.285H561.49V136.544H536.954Z" fill="#2B2B2B"/>
<path d="M572.442 158.256V108.744H581.367V150.729H604.699V158.256H572.442Z" fill="#2B2B2B"/>
<path d="M609.917 158.256V108.744H618.841V158.256H609.917Z" fill="#2B2B2B"/>
<path d="M628.588 158.256V108.744H637.614L662.784 147.35H661.113V108.744H669.536V158.256H660.511L635.341 119.65H637.012V158.256H628.588Z" fill="#2B2B2B"/>
<path d="M704.754 158.757C698.715 158.757 693.678 157.865 689.645 156.081C685.611 154.275 682.57 151.52 680.519 147.818C678.492 144.094 677.478 139.354 677.478 133.6C677.478 127.802 678.525 123.029 680.62 119.282C682.714 115.513 685.756 112.714 689.745 110.885C693.734 109.034 698.548 108.109 704.185 108.109C706.102 108.109 707.985 108.22 709.835 108.443C711.684 108.666 713.512 109.001 715.317 109.447V116.907C713.489 116.439 711.729 116.104 710.035 115.903C708.342 115.703 706.637 115.602 704.921 115.602C700.932 115.602 697.6 116.193 694.926 117.375C692.252 118.557 690.235 120.475 688.876 123.129C687.517 125.783 686.837 129.307 686.837 133.701C686.837 137.849 687.472 141.228 688.742 143.837C690.013 146.424 691.929 148.32 694.492 149.524C697.055 150.729 700.252 151.331 704.085 151.331C705.511 151.331 706.904 151.275 708.264 151.163C709.623 151.052 710.882 150.896 712.041 150.695L708.264 154.107V134.169H716.654V157.72C714.537 158.077 712.509 158.334 710.57 158.49C708.631 158.668 706.693 158.757 704.754 158.757Z" fill="#2B2B2B"/>
<path d="M315.711 242.525C313.46 242.525 311.187 242.347 308.891 241.99C306.596 241.633 304.457 241.12 302.474 240.451V233.091C303.855 233.559 305.304 233.95 306.819 234.262C308.357 234.574 309.883 234.82 311.398 234.998C312.914 235.154 314.351 235.232 315.711 235.232C319.298 235.232 321.883 234.63 323.465 233.426C325.048 232.221 325.839 230.515 325.839 228.307C325.839 226.412 325.248 224.951 324.067 223.925C322.908 222.877 320.791 221.962 317.716 221.182L314.373 220.312C310.095 219.219 306.864 217.546 304.68 215.294C302.518 213.019 301.437 210.031 301.437 206.328C301.437 201.779 303.064 198.21 306.318 195.623C309.571 193.036 314.451 191.743 320.958 191.743C323.076 191.743 325.115 191.876 327.076 192.144C329.059 192.389 330.831 192.746 332.39 193.215V200.574C330.764 200.061 329.003 199.682 327.109 199.437C325.215 199.169 323.321 199.035 321.426 199.035C318.73 199.035 316.568 199.314 314.942 199.872C313.337 200.429 312.167 201.221 311.432 202.247C310.719 203.251 310.362 204.455 310.362 205.86C310.362 207.644 310.886 209.049 311.933 210.075C313.003 211.079 314.919 211.949 317.683 212.685L321.025 213.554C324.167 214.335 326.752 215.361 328.78 216.632C330.831 217.881 332.346 219.42 333.326 221.249C334.307 223.055 334.797 225.207 334.797 227.705C334.797 230.805 334.039 233.459 332.524 235.667C331.009 237.875 328.825 239.57 325.973 240.752C323.142 241.934 319.722 242.525 315.711 242.525Z" fill="#2B2B2B"/>
<path d="M362.21 242.525C357.731 242.525 353.82 241.622 350.477 239.815C347.135 238.009 344.527 235.232 342.656 231.485C340.806 227.739 339.881 222.955 339.881 217.134C339.881 211.313 340.806 206.529 342.656 202.782C344.527 199.035 347.135 196.259 350.477 194.452C353.82 192.646 357.731 191.743 362.21 191.743C366.712 191.743 370.634 192.646 373.976 194.452C377.319 196.259 379.915 199.047 381.765 202.816C383.614 206.563 384.539 211.335 384.539 217.134C384.539 222.932 383.614 227.716 381.765 231.485C379.915 235.232 377.308 238.009 373.943 239.815C370.6 241.622 366.689 242.525 362.21 242.525ZM362.21 235.199C364.929 235.199 367.269 234.608 369.23 233.426C371.191 232.244 372.695 230.348 373.742 227.739C374.812 225.107 375.347 221.639 375.347 217.335C375.347 212.896 374.812 209.339 373.742 206.663C372.673 203.987 371.157 202.057 369.196 200.875C367.235 199.671 364.907 199.069 362.21 199.069C359.536 199.069 357.207 199.66 355.224 200.842C353.263 202.002 351.748 203.897 350.678 206.529C349.608 209.138 349.073 212.606 349.073 216.933C349.073 221.394 349.608 224.962 350.678 227.638C351.748 230.314 353.263 232.244 355.224 233.426C357.185 234.608 359.514 235.199 362.21 235.199Z" fill="#2B2B2B"/>
<path d="M392.513 241.889V192.378H401.437V234.362H424.769V241.889H392.513Z" fill="#2B2B2B"/>
<path d="M448.698 242.525C444.085 242.525 440.307 241.789 437.366 240.317C434.424 238.823 432.24 236.559 430.814 233.526C429.41 230.493 428.708 226.657 428.708 222.018V192.378H437.667V222.888C437.667 227.17 438.569 230.281 440.374 232.221C442.179 234.139 444.954 235.098 448.698 235.098C452.441 235.098 455.205 234.139 456.987 232.221C458.792 230.281 459.695 227.17 459.695 222.888V192.378H468.486V222.018C468.486 226.657 467.784 230.493 466.38 233.526C464.976 236.559 462.815 238.823 459.895 240.317C456.976 241.789 453.244 242.525 448.698 242.525Z" fill="#2B2B2B"/>
<path d="M489.438 241.889V199.905H473.527V192.378H514.307V199.905H498.396V241.889H489.438Z" fill="#2B2B2B"/>
<path d="M519.625 241.889V192.378H528.55V241.889H519.625Z" fill="#2B2B2B"/>
<path d="M558.788 242.525C554.309 242.525 550.398 241.622 547.055 239.815C543.712 238.009 541.105 235.232 539.233 231.485C537.384 227.739 536.459 222.955 536.459 217.134C536.459 211.313 537.384 206.529 539.233 202.782C541.105 199.035 543.712 196.259 547.055 194.452C550.398 192.646 554.309 191.743 558.788 191.743C563.289 191.743 567.211 192.646 570.554 194.452C573.897 196.259 576.493 199.047 578.342 202.816C580.192 206.563 581.117 211.335 581.117 217.134C581.117 222.932 580.192 227.716 578.342 231.485C576.493 235.232 573.885 238.009 570.521 239.815C567.178 241.622 563.267 242.525 558.788 242.525ZM558.788 235.199C561.507 235.199 563.846 234.608 565.807 233.426C567.768 232.244 569.273 230.348 570.32 227.739C571.39 225.107 571.924 221.639 571.924 217.335C571.924 212.896 571.39 209.339 570.32 206.663C569.25 203.987 567.735 202.057 565.774 200.875C563.813 199.671 561.484 199.069 558.788 199.069C556.114 199.069 553.785 199.66 551.802 200.842C549.841 202.002 548.325 203.897 547.256 206.529C546.186 209.138 545.651 212.606 545.651 216.933C545.651 221.394 546.186 224.962 547.256 227.638C548.325 230.314 549.841 232.244 551.802 233.426C553.763 234.608 556.091 235.199 558.788 235.199Z" fill="#2B2B2B"/>
<path d="M589.09 241.889V192.378H598.115L623.286 230.984H621.614V192.378H630.038V241.889H621.013L595.842 203.284H597.514V241.889H589.09Z" fill="#2B2B2B"/>
<path d="M651.283 242.525C649.032 242.525 646.759 242.347 644.464 241.99C642.169 241.633 640.029 241.12 638.046 240.451V233.091C639.428 233.559 640.876 233.95 642.392 234.262C643.929 234.574 645.456 234.82 646.971 234.998C648.486 235.154 649.924 235.232 651.283 235.232C654.871 235.232 657.456 234.63 659.038 233.426C660.62 232.221 661.411 230.515 661.411 228.307C661.411 226.412 660.821 224.951 659.64 223.925C658.481 222.877 656.364 221.962 653.289 221.182L649.946 220.312C645.667 219.219 642.436 217.546 640.252 215.294C638.091 213.019 637.01 210.031 637.01 206.328C637.01 201.779 638.637 198.21 641.89 195.623C645.144 193.036 650.024 191.743 656.531 191.743C658.648 191.743 660.687 191.876 662.648 192.144C664.631 192.389 666.403 192.746 667.963 193.215V200.574C666.336 200.061 664.576 199.682 662.682 199.437C660.787 199.169 658.893 199.035 656.999 199.035C654.303 199.035 652.141 199.314 650.514 199.872C648.91 200.429 647.74 201.221 647.004 202.247C646.291 203.251 645.935 204.455 645.935 205.86C645.935 207.644 646.458 209.049 647.506 210.075C648.576 211.079 650.492 211.949 653.255 212.685L656.598 213.554C659.74 214.335 662.325 215.361 664.353 216.632C666.403 217.881 667.919 219.42 668.899 221.249C669.88 223.055 670.37 225.207 670.37 227.705C670.37 230.805 669.612 233.459 668.097 235.667C666.581 237.875 664.397 239.57 661.545 240.752C658.715 241.934 655.294 242.525 651.283 242.525Z" fill="#2B2B2B"/>
</svg>
